<svg xmlns="http://www.w3.org/2000/svg" width="1600" height="470" viewBox="0 0 1600 470" role="img" aria-labelledby="title desc" lang="fr-FR">
<title id="title">Learn Harness Engineering</title><desc id="desc">Learn Harness Engineering. Des agents de programmation IA qui travaillent de façon fiable.</desc>
<rect width="1600" height="470" fill="#FAF9F5" />
<defs><marker id="arrow" viewBox="0 0 10 10" refX="9" refY="5" markerWidth="6" markerHeight="6" orient="auto-start-reverse"><path d="M0 0L10 5L0 10Z" fill="#73716C" /></marker></defs>
<g fill="#191918" aria-label="Learn">
<path transform="translate(75.0000 244.0000) scale(0.184000 -0.184000)" d="M34 0Q19 0 19 11Q19 20 32 23L55 27Q76 31 82.5 38.0Q89 45 89 66V654Q89 675 82.5 682.0Q76 689 55 693L32 697Q19 700 19 709Q19 720 34 720H217Q232 720 232 708Q232 699 221 697L194 693Q173 690 166.5 682.0Q160 674 160 653V93Q160 57 180.5 41.0Q201 25 232 25Q255 25 279.5 34.5Q304 44 324.0 70.5Q344 97 354 148L367 215Q370 228 382 228Q396 228 394 211L382 23Q380 0 357 0Z" />
<path transform="translate(148.9844 244.0000) scale(0.184000 -0.184000)" d="M192 -9Q144 -9 106.0 23.0Q68 55 45.5 113.5Q23 172 23 249Q23 328 46.0 388.0Q69 448 109.0 482.0Q149 516 198 516Q257 516 293.5 467.5Q330 419 330 310Q330 277 305 277H115Q95 277 95 254Q95 148 126.0 95.0Q157 42 205 42Q243 42 267.0 69.0Q291 96 306 160Q309 171 319 171Q331 171 328 151Q312 62 277.0 26.5Q242 -9 192 -9ZM112 302H213Q261 302 261 352Q261 417 245.0 454.0Q229 491 197 491Q158 491 131.5 446.0Q105 401 97 318Q95 302 112 302Z" />
<path transform="translate(212.2969 244.0000) scale(0.184000 -0.184000)" d="M120 -9Q78 -9 51.0 17.5Q24 44 24 88Q24 131 51.0 169.5Q78 208 125.0 239.0Q172 270 232 289Q245 293 245 306V397Q245 445 230.0 465.5Q215 486 189 486Q164 486 143.5 463.5Q123 441 114 388Q109 356 92.5 341.5Q76 327 59 327Q31 327 31 355Q31 384 47.5 412.5Q64 441 91.0 464.5Q118 488 150.0 502.0Q182 516 214 516Q313 516 313 401V95Q313 53 334 53Q347 53 358.0 70.5Q369 88 369 130Q369 146 382 146Q394 146 394 129Q394 56 368.5 23.5Q343 -9 311 -9Q287 -9 273.0 10.5Q259 30 254 57Q253 67 245.5 67.5Q238 68 231 58Q207 25 182.0 8.0Q157 -9 120 -9ZM147 37Q173 37 195.0 55.5Q217 74 231.0 105.0Q245 136 245 175V248Q245 267 224 259Q163 237 129.5 198.5Q96 160 96 106Q96 37 147 37Z" />
<path transform="translate(283.7188 244.0000) scale(0.184000 -0.184000)" d="M154 446Q195 516 253 516Q286 516 302.0 496.5Q318 477 318 453Q318 434 308.5 422.0Q299 410 279 410Q263 410 255.5 417.5Q248 425 243.5 435.0Q239 445 233.0 452.5Q227 460 213 460Q195 460 179.0 438.5Q163 417 152.5 381.0Q142 345 142 299V67Q142 46 148.5 37.0Q155 28 176 26L203 23Q214 21 214 12Q214 0 199 0H30Q15 0 15 11Q15 20 28 23L40 25Q61 29 67.5 37.5Q74 46 74 67V403Q74 421 68.5 427.5Q63 434 49 436L28 439Q15 440 15 450Q15 458 31 461Q62 466 78.5 477.0Q95 488 113 504Q122 513 128 513Q137 513 137 501V447Q137 440 143.0 438.5Q149 437 154 446Z" />
<path transform="translate(340.2344 244.0000) scale(0.184000 -0.184000)" d="M30 0Q15 0 15 11Q15 20 28 23L40 25Q61 29 67.5 37.5Q74 46 74 67V403Q74 421 68.5 427.5Q63 434 49 436L28 439Q15 440 15 450Q15 458 31 461Q62 466 78.5 477.0Q95 488 113 504Q122 513 128 513Q137 513 137 501V456Q137 447 143.5 444.5Q150 442 158 450Q198 488 228.5 502.0Q259 516 293 516Q338 516 365.0 484.5Q392 453 392 392V67Q392 46 398.5 37.5Q405 29 426 26L448 23Q459 21 459 11Q459 0 447 0H279Q265 0 265 11Q265 21 276 23L290 25Q311 28 317.5 37.0Q324 46 324 67V381Q324 430 306.0 450.0Q288 470 255 470Q223 470 197.5 451.5Q172 433 157.0 402.5Q142 372 142 335V67Q142 46 148.5 37.0Q155 28 176 26L203 23Q214 21 214 12Q214 0 199 0Z" />
</g>
<g fill="#D95C41" aria-label="Harness">
<path transform="translate(466.7188 244.0000) scale(0.184000 -0.184000)" d="M34 0Q19 0 19 11Q19 20 32 23L55 27Q76 31 82.5 38.0Q89 45 89 66V654Q89 675 82.5 682.0Q76 689 55 693L32 697Q19 700 19 709Q19 720 34 720H217Q232 720 232 708Q232 699 221 697L194 693Q173 690 166.5 682.0Q160 674 160 653V402Q160 388 174 388H372Q386 388 386 402V653Q386 674 379.5 682.0Q373 690 352 693L325 697Q314 699 314 708Q314 720 329 720H512Q527 720 527 709Q527 700 514 697L491 693Q470 689 463.5 682.0Q457 675 457 654V66Q457 45 463.5 38.0Q470 31 491 27L514 23Q527 20 527 11Q527 0 512 0H329Q314 0 314 12Q314 21 325 23L352 27Q373 30 379.5 38.0Q386 46 386 67V344Q386 358 372 358H174Q160 358 160 344V67Q160 46 166.5 38.0Q173 30 194 27L221 23Q232 21 232 12Q232 0 217 0Z" />
<path transform="translate(562.9844 244.0000) scale(0.184000 -0.184000)" d="M120 -9Q78 -9 51.0 17.5Q24 44 24 88Q24 131 51.0 169.5Q78 208 125.0 239.0Q172 270 232 289Q245 293 245 306V397Q245 445 230.0 465.5Q215 486 189 486Q164 486 143.5 463.5Q123 441 114 388Q109 356 92.5 341.5Q76 327 59 327Q31 327 31 355Q31 384 47.5 412.5Q64 441 91.0 464.5Q118 488 150.0 502.0Q182 516 214 516Q313 516 313 401V95Q313 53 334 53Q347 53 358.0 70.5Q369 88 369 130Q369 146 382 146Q394 146 394 129Q394 56 368.5 23.5Q343 -9 311 -9Q287 -9 273.0 10.5Q259 30 254 57Q253 67 245.5 67.5Q238 68 231 58Q207 25 182.0 8.0Q157 -9 120 -9ZM147 37Q173 37 195.0 55.5Q217 74 231.0 105.0Q245 136 245 175V248Q245 267 224 259Q163 237 129.5 198.5Q96 160 96 106Q96 37 147 37Z" />
<path transform="translate(634.4062 244.0000) scale(0.184000 -0.184000)" d="M154 446Q195 516 253 516Q286 516 302.0 496.5Q318 477 318 453Q318 434 308.5 422.0Q299 410 279 410Q263 410 255.5 417.5Q248 425 243.5 435.0Q239 445 233.0 452.5Q227 460 213 460Q195 460 179.0 438.5Q163 417 152.5 381.0Q142 345 142 299V67Q142 46 148.5 37.0Q155 28 176 26L203 23Q214 21 214 12Q214 0 199 0H30Q15 0 15 11Q15 20 28 23L40 25Q61 29 67.5 37.5Q74 46 74 67V403Q74 421 68.5 427.5Q63 434 49 436L28 439Q15 440 15 450Q15 458 31 461Q62 466 78.5 477.0Q95 488 113 504Q122 513 128 513Q137 513 137 501V447Q137 440 143.0 438.5Q149 437 154 446Z" />
<path transform="translate(690.9219 244.0000) scale(0.184000 -0.184000)" d="M30 0Q15 0 15 11Q15 20 28 23L40 25Q61 29 67.5 37.5Q74 46 74 67V403Q74 421 68.5 427.5Q63 434 49 436L28 439Q15 440 15 450Q15 458 31 461Q62 466 78.5 477.0Q95 488 113 504Q122 513 128 513Q137 513 137 501V456Q137 447 143.5 444.5Q150 442 158 450Q198 488 228.5 502.0Q259 516 293 516Q338 516 365.0 484.5Q392 453 392 392V67Q392 46 398.5 37.5Q405 29 426 26L448 23Q459 21 459 11Q459 0 447 0H279Q265 0 265 11Q265 21 276 23L290 25Q311 28 317.5 37.0Q324 46 324 67V381Q324 430 306.0 450.0Q288 470 255 470Q223 470 197.5 451.5Q172 433 157.0 402.5Q142 372 142 335V67Q142 46 148.5 37.0Q155 28 176 26L203 23Q214 21 214 12Q214 0 199 0Z" />
<path transform="translate(775.4062 244.0000) scale(0.184000 -0.184000)" d="M192 -9Q144 -9 106.0 23.0Q68 55 45.5 113.5Q23 172 23 249Q23 328 46.0 388.0Q69 448 109.0 482.0Q149 516 198 516Q257 516 293.5 467.5Q330 419 330 310Q330 277 305 277H115Q95 277 95 254Q95 148 126.0 95.0Q157 42 205 42Q243 42 267.0 69.0Q291 96 306 160Q309 171 319 171Q331 171 328 151Q312 62 277.0 26.5Q242 -9 192 -9ZM112 302H213Q261 302 261 352Q261 417 245.0 454.0Q229 491 197 491Q158 491 131.5 446.0Q105 401 97 318Q95 302 112 302Z" />
<path transform="translate(838.7188 244.0000) scale(0.184000 -0.184000)" d="M131 -9Q108 -9 82.0 -3.5Q56 2 40 10Q31 15 31 27L28 139Q28 156 41 156Q52 156 56 140Q73 69 97.5 43.0Q122 17 157 17Q186 17 205.0 39.5Q224 62 224 102Q224 142 202.0 173.0Q180 204 128 241Q76 276 52.0 311.5Q28 347 28 389Q28 446 68.0 481.0Q108 516 174 516Q194 516 213.0 511.5Q232 507 247 497Q256 491 256 481L258 371Q258 356 246 356Q239 356 236.0 360.5Q233 365 231 372Q211 437 191.0 462.5Q171 488 142 488Q116 488 99.0 470.0Q82 452 82 425Q82 390 103.0 364.0Q124 338 179 300Q229 264 254.5 222.5Q280 181 280 132Q280 68 239.0 29.5Q198 -9 131 -9Z" />
<path transform="translate(893.3906 244.0000) scale(0.184000 -0.184000)" d="M131 -9Q108 -9 82.0 -3.5Q56 2 40 10Q31 15 31 27L28 139Q28 156 41 156Q52 156 56 140Q73 69 97.5 43.0Q122 17 157 17Q186 17 205.0 39.5Q224 62 224 102Q224 142 202.0 173.0Q180 204 128 241Q76 276 52.0 311.5Q28 347 28 389Q28 446 68.0 481.0Q108 516 174 516Q194 516 213.0 511.5Q232 507 247 497Q256 491 256 481L258 371Q258 356 246 356Q239 356 236.0 360.5Q233 365 231 372Q211 437 191.0 462.5Q171 488 142 488Q116 488 99.0 470.0Q82 452 82 425Q82 390 103.0 364.0Q124 338 179 300Q229 264 254.5 222.5Q280 181 280 132Q280 68 239.0 29.5Q198 -9 131 -9Z" />
</g>
<g fill="#191918" aria-label="Engineering">
<path transform="translate(84.0000 374.0000) scale(0.056000 -0.056000)" d="M140 0V1440H1050V1271H318V820H930V651H318V169H1050V0Z" />
<path transform="translate(145.4062 374.0000) scale(0.056000 -0.056000)" d="M909 0V541Q909 618 895.5 689.0Q882 760 848.5 816.5Q815 873 758.5 906.0Q702 939 616 939Q549 939 494.5 916.5Q440 894 401.0 848.0Q362 802 340.5 732.5Q319 663 319 569L202 605Q202 762 258.5 874.5Q315 987 417.5 1047.5Q520 1108 659 1108Q764 1108 838.0 1075.0Q912 1042 961.0 987.5Q1010 933 1038.0 865.5Q1066 798 1077.5 728.5Q1089 659 1089 597V0ZM139 0V1080H299V791H319V0Z" />
<path transform="translate(210.1094 374.0000) scale(0.056000 -0.056000)" d="M577 -510Q492 -510 411.0 -484.0Q330 -458 262.5 -405.5Q195 -353 150 -273L313 -187Q353 -266 426.5 -302.0Q500 -338 578 -338Q681 -338 749.0 -300.5Q817 -263 849.5 -189.0Q882 -115 881 -5V290H902V1080H1060V-7Q1060 -51 1057.5 -92.0Q1055 -133 1047 -173Q1026 -288 964.0 -362.5Q902 -437 804.0 -473.5Q706 -510 577 -510ZM564 -30Q413 -30 305.0 45.5Q197 121 138.5 250.0Q80 379 80 541Q80 703 138.5 832.0Q197 961 305.0 1035.5Q413 1110 563 1110Q716 1110 820.0 1036.0Q924 962 977.5 833.0Q1031 704 1031 541Q1031 380 977.5 250.5Q924 121 820.0 45.5Q716 -30 564 -30ZM586 133Q695 133 765.0 185.5Q835 238 868.5 330.5Q902 423 902 541Q902 661 868.5 752.5Q835 844 766.0 895.5Q697 947 591 947Q481 947 409.5 893.0Q338 839 303.5 747.0Q269 655 269 541Q269 426 304.0 333.5Q339 241 409.5 187.0Q480 133 586 133Z" />
<path transform="translate(274.3125 374.0000) scale(0.056000 -0.056000)" d="M160 1271V1455H338V1271ZM160 0V1080H338V0Z" />
<path transform="translate(299.2031 374.0000) scale(0.056000 -0.056000)" d="M909 0V541Q909 618 895.5 689.0Q882 760 848.5 816.5Q815 873 758.5 906.0Q702 939 616 939Q549 939 494.5 916.5Q440 894 401.0 848.0Q362 802 340.5 732.5Q319 663 319 569L202 605Q202 762 258.5 874.5Q315 987 417.5 1047.5Q520 1108 659 1108Q764 1108 838.0 1075.0Q912 1042 961.0 987.5Q1010 933 1038.0 865.5Q1066 798 1077.5 728.5Q1089 659 1089 597V0ZM139 0V1080H299V791H319V0Z" />
<path transform="translate(363.3438 374.0000) scale(0.056000 -0.056000)" d="M608 -30Q449 -30 330.5 40.5Q212 111 146.0 237.5Q80 364 80 533Q80 710 145.0 839.5Q210 969 326.5 1039.5Q443 1110 600 1110Q763 1110 877.5 1035.0Q992 960 1049.5 821.0Q1107 682 1099 490H919V554Q916 753 838.0 851.5Q760 950 606 950Q441 950 355.0 844.0Q269 738 269 540Q269 349 355.0 244.0Q441 139 600 139Q707 139 786.0 188.0Q865 237 910 329L1081 270Q1018 127 891.5 48.5Q765 -30 608 -30ZM209 490V633H1007V490Z" />
<path transform="translate(426.4844 374.0000) scale(0.056000 -0.056000)" d="M608 -30Q449 -30 330.5 40.5Q212 111 146.0 237.5Q80 364 80 533Q80 710 145.0 839.5Q210 969 326.5 1039.5Q443 1110 600 1110Q763 1110 877.5 1035.0Q992 960 1049.5 821.0Q1107 682 1099 490H919V554Q916 753 838.0 851.5Q760 950 606 950Q441 950 355.0 844.0Q269 738 269 540Q269 349 355.0 244.0Q441 139 600 139Q707 139 786.0 188.0Q865 237 910 329L1081 270Q1018 127 891.5 48.5Q765 -30 608 -30ZM209 490V633H1007V490Z" />
<path transform="translate(489.6250 374.0000) scale(0.056000 -0.056000)" d="M140 0V1080H299V819L273 853Q292 903 322.5 945.0Q353 987 391 1014Q433 1048 486.0 1066.0Q539 1084 594.0 1087.5Q649 1091 697 1080V913Q641 928 574.0 921.0Q507 914 450 872Q398 835 369.5 782.0Q341 729 330.0 667.5Q319 606 319 542V0Z" />
<path transform="translate(528.4531 374.0000) scale(0.056000 -0.056000)" d="M160 1271V1455H338V1271ZM160 0V1080H338V0Z" />
<path transform="translate(553.3438 374.0000) scale(0.056000 -0.056000)" d="M909 0V541Q909 618 895.5 689.0Q882 760 848.5 816.5Q815 873 758.5 906.0Q702 939 616 939Q549 939 494.5 916.5Q440 894 401.0 848.0Q362 802 340.5 732.5Q319 663 319 569L202 605Q202 762 258.5 874.5Q315 987 417.5 1047.5Q520 1108 659 1108Q764 1108 838.0 1075.0Q912 1042 961.0 987.5Q1010 933 1038.0 865.5Q1066 798 1077.5 728.5Q1089 659 1089 597V0ZM139 0V1080H299V791H319V0Z" />
<path transform="translate(618.0469 374.0000) scale(0.056000 -0.056000)" d="M577 -510Q492 -510 411.0 -484.0Q330 -458 262.5 -405.5Q195 -353 150 -273L313 -187Q353 -266 426.5 -302.0Q500 -338 578 -338Q681 -338 749.0 -300.5Q817 -263 849.5 -189.0Q882 -115 881 -5V290H902V1080H1060V-7Q1060 -51 1057.5 -92.0Q1055 -133 1047 -173Q1026 -288 964.0 -362.5Q902 -437 804.0 -473.5Q706 -510 577 -510ZM564 -30Q413 -30 305.0 45.5Q197 121 138.5 250.0Q80 379 80 541Q80 703 138.5 832.0Q197 961 305.0 1035.5Q413 1110 563 1110Q716 1110 820.0 1036.0Q924 962 977.5 833.0Q1031 704 1031 541Q1031 380 977.5 250.5Q924 121 820.0 45.5Q716 -30 564 -30ZM586 133Q695 133 765.0 185.5Q835 238 868.5 330.5Q902 423 902 541Q902 661 868.5 752.5Q835 844 766.0 895.5Q697 947 591 947Q481 947 409.5 893.0Q338 839 303.5 747.0Q269 655 269 541Q269 426 304.0 333.5Q339 241 409.5 187.0Q480 133 586 133Z" />
</g>
<path d="M84 426H1516" fill="none" stroke="#D8D6D0" stroke-width="1.5" />
<path d="M84 426H192" fill="none" stroke="#D95C41" stroke-width="5" />
<g fill="#73716C" aria-label="Des agents de programmation"><use href="#glyph-0" transform="translate(1145.3375 285.5000) scale(0.025000 -0.025000)" /><use href="#glyph-1" transform="translate(1163.6125 285.5000) scale(0.025000 -0.025000)" /><use href="#glyph-2" transform="translate(1177.9625 285.5000) scale(0.025000 -0.025000)" /><use href="#glyph-3" transform="translate(1196.6125 285.5000) scale(0.025000 -0.025000)" /><use href="#glyph-4" transform="translate(1210.9125 285.5000) scale(0.025000 -0.025000)" /><use href="#glyph-1" transform="translate(1226.4125 285.5000) scale(0.025000 -0.025000)" /><use href="#glyph-5" transform="translate(1240.7625 285.5000) scale(0.025000 -0.025000)" /><use href="#glyph-6" transform="translate(1256.4375 285.5000) scale(0.025000 -0.025000)" /><use href="#glyph-2" transform="translate(1266.0125 285.5000) scale(0.025000 -0.025000)" /><use href="#glyph-7" transform="translate(1284.6625 285.5000) scale(0.025000 -0.025000)" /><use href="#glyph-1" transform="translate(1300.1625 285.5000) scale(0.025000 -0.025000)" /><use href="#glyph-8" transform="translate(1321.0125 285.5000) scale(0.025000 -0.025000)" /><use href="#glyph-9" transform="translate(1336.5125 285.5000) scale(0.025000 -0.025000)" /><use href="#glyph-10" transform="translate(1346.5875 285.5000) scale(0.025000 -0.025000)" /><use href="#glyph-4" transform="translate(1361.8625 285.5000) scale(0.025000 -0.025000)" /><use href="#glyph-9" transform="translate(1377.3625 285.5000) scale(0.025000 -0.025000)" /><use href="#glyph-3" transform="translate(1387.4375 285.5000) scale(0.025000 -0.025000)" /><use href="#glyph-11" transform="translate(1401.7375 285.5000) scale(0.025000 -0.025000)" /><use href="#glyph-11" transform="translate(1425.4125 285.5000) scale(0.025000 -0.025000)" /><use href="#glyph-3" transform="translate(1449.0875 285.5000) scale(0.025000 -0.025000)" /><use href="#glyph-6" transform="translate(1463.3875 285.5000) scale(0.025000 -0.025000)" /><use href="#glyph-12" transform="translate(1472.9625 285.5000) scale(0.025000 -0.025000)" /><use href="#glyph-10" transform="translate(1479.7125 285.5000) scale(0.025000 -0.025000)" /><use href="#glyph-5" transform="translate(1494.9875 285.5000) scale(0.025000 -0.025000)" /></g><g fill="#73716C" aria-label="IA"><use href="#glyph-13" transform="translate(1315.3875 320.5000) scale(0.025000 -0.025000)" /><use href="#glyph-14" transform="translate(1324.2375 320.5000) scale(0.025000 -0.025000)" /></g><g fill="#D95C41" aria-label="qui travaillent de façon fiable."><use href="#glyph-15" transform="translate(1143.4780 374.0000) scale(0.026000 -0.026000)" /><use href="#glyph-16" transform="translate(1159.5980 374.0000) scale(0.026000 -0.026000)" /><use href="#glyph-12" transform="translate(1175.9000 374.0000) scale(0.026000 -0.026000)" /><use href="#glyph-6" transform="translate(1189.6800 374.0000) scale(0.026000 -0.026000)" /><use href="#glyph-9" transform="translate(1199.6380 374.0000) scale(0.026000 -0.026000)" /><use href="#glyph-3" transform="translate(1210.1160 374.0000) scale(0.026000 -0.026000)" /><use href="#glyph-17" transform="translate(1224.9880 374.0000) scale(0.026000 -0.026000)" /><use href="#glyph-3" transform="translate(1238.6900 374.0000) scale(0.026000 -0.026000)" /><use href="#glyph-12" transform="translate(1253.5620 374.0000) scale(0.026000 -0.026000)" /><use href="#glyph-18" transform="translate(1260.5820 374.0000) scale(0.026000 -0.026000)" /><use href="#glyph-18" transform="translate(1267.6020 374.0000) scale(0.026000 -0.026000)" /><use href="#glyph-1" transform="translate(1274.6220 374.0000) scale(0.026000 -0.026000)" /><use href="#glyph-5" transform="translate(1289.5460 374.0000) scale(0.026000 -0.026000)" /><use href="#glyph-6" transform="translate(1305.8480 374.0000) scale(0.026000 -0.026000)" /><use href="#glyph-7" transform="translate(1322.5660 374.0000) scale(0.026000 -0.026000)" /><use href="#glyph-1" transform="translate(1338.6860 374.0000) scale(0.026000 -0.026000)" /><use href="#glyph-19" transform="translate(1360.3700 374.0000) scale(0.026000 -0.026000)" /><use href="#glyph-3" transform="translate(1369.6520 374.0000) scale(0.026000 -0.026000)" /><use href="#glyph-20" transform="translate(1384.5240 374.0000) scale(0.026000 -0.026000)" /><use href="#glyph-10" transform="translate(1397.2900 374.0000) scale(0.026000 -0.026000)" /><use href="#glyph-5" transform="translate(1413.1760 374.0000) scale(0.026000 -0.026000)" /><use href="#glyph-21" transform="translate(1436.2380 374.0000) scale(0.026000 -0.026000)" /><use href="#glyph-3" transform="translate(1452.5140 374.0000) scale(0.026000 -0.026000)" /><use href="#glyph-22" transform="translate(1467.3860 374.0000) scale(0.026000 -0.026000)" /><use href="#glyph-18" transform="translate(1483.5060 374.0000) scale(0.026000 -0.026000)" /><use href="#glyph-1" transform="translate(1490.5260 374.0000) scale(0.026000 -0.026000)" /><use href="#glyph-23" transform="translate(1505.4500 374.0000) scale(0.026000 -0.026000)" /></g><defs><path id="glyph-0" d="M671.52 365.44Q671.52 244.72 626.66 163.36Q581.8 82 498.62 41Q415.44 0 298.16 0H93.4V714H318.26Q427.52 714 506.7 674.09Q585.88 634.18 628.7 556.95Q671.52 479.72 671.52 365.44ZM557.62 361.72Q557.62 451.32 528.64 509.08Q499.66 566.84 443.84 594.81Q388.02 622.78 307.96 622.78H201.94V91.58H289.22Q423.96 91.58 490.79 159.39Q557.62 227.2 557.62 361.72Z" /><path id="glyph-1" d="M296.14 549.06Q367.3 549.06 418.42 519.42Q469.54 489.78 496.94 435.01Q524.34 380.24 524.34 305.08V246.32H162.02Q164.02 163.96 206 119.97Q247.98 75.98 324.02 75.98Q375.2 75.98 415.33 85.57Q455.46 95.16 498.18 113.88V26.08Q457.36 7.54 416.01 -1.23Q374.66 -10 316.6 -10Q239.16 -10 179.4 20.73Q119.64 51.46 86.15 113.23Q52.66 175 52.66 265.62Q52.66 355.78 83.06 418.96Q113.46 482.14 168.4 515.6Q223.34 549.06 296.14 549.06ZM296.58 466.62Q238.8 466.62 204.82 429.63Q170.84 392.64 164.38 325.32H417.76Q417.76 367.54 404.57 398.93Q391.38 430.32 364.77 448.47Q338.16 466.62 296.58 466.62Z" /><path id="glyph-2" d="M441.74 151.96Q441.74 99.96 416.19 63.88Q390.64 27.8 342.01 8.9Q293.38 -10 224.14 -10Q167.6 -10 126.02 -1.45Q84.44 7.1 50.38 23.46V116.6Q86.16 99.16 133.19 86.2Q180.22 73.24 224.34 73.24Q285.04 73.24 312.34 92.13Q339.64 111.02 339.64 143.06Q339.64 161.62 328.82 176.36Q318 191.1 290.04 206.2Q262.08 221.3 210.16 241.12Q159.24 260.94 123.41 281.39Q87.58 301.84 68.48 330.47Q49.38 359.1 49.38 403.28Q49.38 473.62 106.14 511.34Q162.9 549.06 255.24 549.06Q305.32 549.06 348.81 539.11Q392.3 529.16 432 511.08L398.04 431.54Q362.78 446.44 324.88 456.62Q286.98 466.8 250.5 466.8Q202.26 466.8 176.64 451.37Q151.02 435.94 151.02 409.36Q151.02 389.52 163.21 375.37Q175.4 361.22 204.73 347.53Q234.06 333.84 284.16 314.02Q334.62 295.02 369.81 274.57Q405 254.12 423.37 225.08Q441.74 196.04 441.74 151.96Z" /><path id="glyph-3" d="M296.64 548.24Q395.9 548.24 445.06 503.62Q494.22 459 494.22 364.64V0H417.98L397.38 75.46H393.38Q370.38 46.46 345.88 27.14Q321.38 7.82 289.79 -1.09Q258.2 -10 213.02 -10Q165.02 -10 126.61 7.45Q88.2 24.9 66.2 61.12Q44.2 97.34 44.2 152.6Q44.2 234.22 106.93 277.63Q169.66 321.04 298.14 325.22L389.32 328.22V355.9Q389.32 417.5 362.3 441.61Q335.28 465.72 286.24 465.72Q245.86 465.72 207.5 453.4Q169.14 441.08 134.7 424.72L102.66 501.52Q140 521.6 190.25 534.92Q240.5 548.24 296.64 548.24ZM315.98 256.48Q224.62 252.84 189.18 226.91Q153.74 200.98 153.74 153.76Q153.74 111.82 178.99 92.17Q204.24 72.52 244 72.52Q306.06 72.52 347.37 107.23Q388.68 141.94 388.68 212.2V259.3Z" /><path id="glyph-4" d="M269.24 549.06Q323.14 549.06 364.38 528.61Q405.62 508.16 434.18 468.6H439L451.36 539.06H538.46V-7.56Q538.46 -83.92 511.38 -135.69Q484.3 -187.46 429.05 -213.73Q373.8 -240 288.56 -240Q228.94 -240 179.99 -231.77Q131.04 -223.54 91.42 -206.36V-111.32Q131.58 -131.5 181.5 -142.41Q231.42 -153.32 290.68 -153.32Q357.7 -153.32 395.22 -116.33Q432.74 -79.34 432.74 -14.74V4.28Q432.74 16.46 433.83 38.15Q434.92 59.84 436.28 70.82H431.92Q405.54 31.26 365.21 10.63Q324.88 -10 269.52 -10Q168.4 -10 110.53 63Q52.66 136 52.66 268.62Q52.66 398.78 110.71 473.92Q168.76 549.06 269.24 549.06ZM292.04 461.74Q250.46 461.74 221.39 439.18Q192.32 416.62 177.26 373.23Q162.2 329.84 162.2 267.26Q162.2 173.12 195.73 124.4Q229.26 75.68 294.22 75.68Q331.98 75.68 358.64 85.64Q385.3 95.6 402.59 116.66Q419.88 137.72 428.07 170.38Q436.26 203.04 436.26 247.8V269.16Q436.26 336.76 421.38 379.15Q406.5 421.54 374.47 441.64Q342.44 461.74 292.04 461.74Z" /><path id="glyph-5" d="M355.42 549.06Q449.62 549.06 499.52 502.3Q549.42 455.54 549.42 350.96V0H443.7V335.62Q443.7 398.82 417.01 430.1Q390.31 461.38 333.24 461.38Q250.54 461.38 219.33 412.45Q188.12 363.51 188.12 271.52V0H81.58V539.06H165.66L181.06 466.06H186.42Q204.42 493.7 230.56 512.2Q256.7 530.7 288.61 539.88Q320.52 549.06 355.42 549.06Z" /><path id="glyph-6" d="M276.98 75.87Q298.46 75.87 320.05 79.81Q341.64 83.75 357.59 88.64V8.66Q340.64 0.77 311.84 -4.61Q283.03 -10 253.72 -10Q209.66 -10 173.27 4.94Q136.89 19.89 114.74 56.92Q92.59 93.95 92.59 160.43V457.97H18.07V506.16L96.54 545.59L133.9 659.89H198.59V538.95H353V457.97H198.59V161.84Q198.59 118.15 220.47 97.01Q242.34 75.87 276.98 75.87Z" /><path id="glyph-7" d="M268.34 -10Q171.04 -10 111.85 60.13Q52.66 130.26 52.66 268.62Q52.66 407.34 112.44 478.2Q172.22 549.06 270.42 549.06Q311.52 549.06 341.8 538.56Q372.08 528.06 394.54 509.97Q417 491.88 432.64 469.7H438.28Q436.74 484.14 434.24 511.71Q431.74 539.28 431.74 557.88V760H538.46V0H454.32L436.28 71.64H431.74Q416.28 48.82 393.82 30.41Q371.36 12 340.49 1Q309.62 -10 268.34 -10ZM293.86 77.04Q371.84 77.04 403.55 120.39Q435.26 163.74 435.44 251.62V267.44Q435.44 361.14 405.05 411.31Q374.66 461.48 292.68 461.48Q228.34 461.48 195.18 409.21Q162.02 356.94 162.02 266.44Q162.02 175.3 195.18 126.17Q228.34 77.04 293.86 77.04Z" /><path id="glyph-8" d="M351.52 549.06Q449.26 549.06 508.23 479.25Q567.2 409.44 567.2 270.62Q567.2 179.08 539.88 116.22Q512.56 53.36 463.78 21.68Q415 -10 349.62 -10Q308.98 -10 277.88 0.82Q246.78 11.64 225.09 28.6Q203.4 45.56 188.12 65.48H182.12Q184.12 48.12 186.12 22.84Q188.12 -2.44 188.12 -23.24V-240H81.58V539.06H168.52L183.22 466.6H188.12Q203.76 489.42 225.72 508.24Q247.68 527.06 278.55 538.06Q309.42 549.06 351.52 549.06ZM325.44 461.38Q276.12 461.38 246.18 442.14Q216.24 422.9 202.68 384.6Q189.12 346.3 188.12 287.44V270.8Q188.12 208.76 200.77 165.64Q213.42 122.52 243.95 100.05Q274.48 77.58 327.26 77.58Q371.76 77.58 400.56 102.15Q429.36 126.72 443.51 170.25Q457.66 213.78 457.66 271.8Q457.66 360.38 425.13 410.88Q392.6 461.38 325.44 461.38Z" /><path id="glyph-9" d="M346.7 549.06Q361.88 549.06 379.29 547.47Q396.7 545.88 408.8 543.06L396.72 444.24Q384.26 447.06 368.94 449.06Q353.62 451.06 337.46 451.06Q308.8 451.06 282.15 439.77Q255.5 428.48 234.13 407.23Q212.76 385.98 200.44 354.96Q188.12 323.94 188.12 283.48V0H81.58V539.06H166.18L179.78 442.86H184.68Q201.32 472.32 225.32 496.46Q249.32 520.6 280.05 534.83Q310.78 549.06 346.7 549.06Z" /><path id="glyph-10" d="M558.74 270.62Q558.74 203.26 540.97 151.31Q523.2 99.36 490.07 63.27Q456.94 27.18 409.63 8.59Q362.32 -10 303.88 -10Q249.62 -10 203.63 8.59Q157.64 27.18 124.01 63.27Q90.38 99.36 71.52 151.31Q52.66 203.26 52.66 270.62Q52.66 360.16 83.29 422.02Q113.92 483.88 171 516.47Q228.08 549.06 306.88 549.06Q381.14 549.06 437.72 516.47Q494.3 483.88 526.52 422.02Q558.74 360.16 558.74 270.62ZM162.2 270.62Q162.2 210.5 177.17 166.43Q192.14 122.36 224.17 98.89Q256.2 75.42 305.88 75.42Q355.56 75.42 387.41 98.89Q419.26 122.36 434.23 166.43Q449.2 210.5 449.2 270.62Q449.2 331.56 433.82 374.22Q418.44 416.88 386.91 439.85Q355.38 462.82 304.88 462.82Q229.9 462.82 196.05 412.06Q162.2 361.3 162.2 270.62Z" /><path id="glyph-11" d="M685.24 549.06Q776.96 549.06 822.86 502.29Q868.76 455.52 868.76 350.98V0H763.04V337.08Q763.04 400.08 738.25 430.73Q713.46 461.38 661.6 461.38Q589.36 461.38 558.65 417.19Q527.94 373 527.94 289.16V0H422.22V337.08Q422.22 378.72 411.12 406.5Q400.02 434.28 377.82 447.83Q355.62 461.38 320.5 461.38Q270.28 461.38 241.53 439.33Q212.78 417.28 200.45 375.18Q188.12 333.08 188.12 271.52V0H81.58V539.06H165.72L181.42 466.96H186.42Q203.06 494.06 227.29 512.38Q251.52 530.7 281.88 539.88Q312.24 549.06 345.86 549.06Q407.68 549.06 448.82 527.33Q489.96 505.6 510.04 461.4H515.22Q542.04 505.78 587.64 527.42Q633.24 549.06 685.24 549.06Z" /><path id="glyph-12" d="M188.3 539.06V0H81.76V539.06ZM135.94 744.02Q159.72 744.02 177.92 729.89Q196.12 715.76 196.12 682.8Q196.12 651.02 177.92 636.39Q159.72 621.76 135.94 621.76Q110.34 621.76 92.73 636.39Q75.12 651.02 75.12 682.8Q75.12 715.76 92.73 729.89Q110.34 744.02 135.94 744.02Z" /><path id="glyph-13" d="M315.41 0H37.64V62.03L122.52 87.23V626.07L37.64 651.97V714H315.41V651.97L230.52 626.07V87.23L315.41 62.03Z" /><path id="glyph-14" d="M539.6 0 462.78 205.34H188.96L112.78 0H0L270.72 717H383.4L653.84 0ZM362.26 497.56Q358.9 507.54 351.54 531.15Q344.18 554.76 337.23 580.05Q330.28 605.34 326.1 619.5Q321.28 598.78 315.24 575.49Q309.2 552.2 303.16 531.96Q297.12 511.72 292.76 497.56L220.76 299.38H433.44Z" /><path id="glyph-15" d="M431.92 -11Q431.92 7.36 433.01 30.73Q434.1 54.1 437.1 71.64H431.1Q408.82 37.82 369.31 13.91Q329.8 -10 267.06 -10Q171.68 -10 112.17 60.13Q52.66 130.26 52.66 268.62Q52.66 360.98 80.21 423.25Q107.76 485.52 156.95 517.29Q206.14 549.06 270.06 549.06Q332.16 549.06 371.35 525.33Q410.54 501.6 434.18 466.96H438.18L451.36 539.06H538.46V-240H431.92ZM295.04 76.5Q345.72 76.5 376.43 95.24Q407.14 113.98 420.88 152.78Q434.62 191.58 435.44 249.44V268.34Q435.44 363.68 404.41 413.12Q373.38 462.56 292.86 462.56Q226.62 462.56 194.41 409.75Q162.2 356.94 162.2 266.44Q162.2 175.58 194.91 126.04Q227.62 76.5 295.04 76.5Z" /><path id="glyph-16" d="M545.78 539.06V0H460.82L445.84 70.64H440.58Q423.58 42.64 396.67 24.73Q369.76 6.82 337.85 -1.59Q305.94 -10 271.12 -10Q208.92 -10 165.33 10.59Q121.74 31.18 99.11 74.54Q76.48 117.9 76.48 186.44V539.06H183.84V201.8Q183.84 139.6 210.41 108.32Q236.98 77.04 293.3 77.04Q348.98 77.04 380.87 99Q412.76 120.96 426 163.47Q439.24 205.98 439.24 266.72V539.06Z" /><path id="glyph-17" d="M204.44 0 0 539.06H112.9L223.3 221.08Q230.04 202.5 237.78 178.65Q245.52 154.8 251.62 132.64Q257.72 110.48 260.18 94.56H264Q267.28 110.48 273.7 132.87Q280.12 155.26 288.36 179.02Q296.6 202.78 302.52 220.9L413.64 539.06H526.54L321.28 0Z" /><path id="glyph-18" d="M188.12 0H81.58V760H188.12Z" /><path id="glyph-19" d="M346.16 457.97H212.93V0H106.93V457.97H16.48V508.11L106.93 541.07V574.72Q106.93 644.02 128.32 685.69Q149.7 727.36 190.03 746.18Q230.36 765 286.54 765Q322.08 765 351.24 759.06Q380.39 753.11 400.28 745.52L372.85 664.72Q356.56 669.72 335.85 674.57Q315.15 679.43 291.97 679.43Q251.8 679.43 232.37 653.02Q212.93 626.62 212.93 573.66V538.95H346.16Z" /><path id="glyph-20" d="M303.24 -10Q229.9 -10 173.23 19.18Q116.56 48.36 84.61 109.72Q52.66 171.08 52.66 266.62Q52.66 365.98 86.56 428.25Q120.46 490.52 178.58 519.79Q236.7 549.06 310.86 549.06Q353.66 549.06 393.01 540.11Q432.36 531.16 459.06 517.72L426.84 432.48Q401.04 442.56 369.49 450.74Q337.94 458.92 309.22 458.92Q259.72 458.92 227.06 437.36Q194.4 415.8 178.3 373.41Q162.2 331.02 162.2 267.62Q162.2 206.5 178.39 164.38Q194.58 122.26 226.42 100.97Q258.26 79.68 305.3 79.68Q348.76 79.68 383.7 89.4Q418.64 99.12 448.26 113.92V22.6Q420 7.16 385.61 -1.42Q351.22 -10 303.24 -10ZM390.64 -136.12Q390.64 -185.02 353.73 -212.51Q316.82 -240 245.16 -240Q226.74 -240 210.63 -237.87Q194.52 -235.74 184.72 -232.84V-170.82Q195.16 -173.36 210.34 -175.13Q225.52 -176.9 239.88 -176.9Q272.82 -176.9 290.29 -167.76Q307.76 -158.62 307.76 -135.78Q307.76 -111.4 283.06 -99.76Q258.36 -88.12 220.36 -82.76L261.02 0H325.68L302.74 -48.86Q326.02 -53.68 346.29 -64.09Q366.56 -74.5 378.6 -91.77Q390.64 -109.04 390.64 -136.12Z" /><path id="glyph-21" d="M346.16 457.97H212.93V0H106.93V457.97H16.48V508.11L106.93 541.07V574.72Q106.93 644.02 128.32 685.69Q149.7 727.36 190.03 746.18Q230.36 765 286.54 765Q322.08 765 351.24 759.06Q380.39 753.11 400.28 745.52L372.85 664.72Q356.56 669.72 335.85 674.57Q315.15 679.43 291.97 679.43Q251.8 679.43 232.37 653.02Q212.93 626.62 212.93 573.66V538.95H346.16ZM544.72 539.06V0H438.18V539.06ZM492.36 744.02Q516.14 744.02 534.34 729.89Q552.54 715.76 552.54 682.8Q552.54 651.02 534.34 636.39Q516.14 621.76 492.36 621.76Q466.76 621.76 449.15 636.39Q431.54 651.02 431.54 682.8Q431.54 715.76 449.15 729.89Q466.76 744.02 492.36 744.02Z" /><path id="glyph-22" d="M188.12 577.34Q188.12 544.24 186.53 515.19Q184.94 486.14 182.76 468.06H188.12Q210.76 502.06 249.86 525.15Q288.96 548.24 350.7 548.24Q448.18 548.24 507.69 478.11Q567.2 407.98 567.2 269.8Q567.2 177.44 540.06 114.99Q512.92 52.54 463.73 21.27Q414.54 -10 349.62 -10Q287.52 -10 249.14 12.55Q210.76 35.1 188.12 65.48H180.22L160.06 0H81.58V760H188.12ZM325.8 461.38Q274.38 461.38 244.17 441.5Q213.96 421.62 201.04 380.63Q188.12 339.64 188.12 275.86V267.72Q188.12 175.02 217.92 126.3Q247.72 77.58 327.8 77.58Q392.96 77.58 425.31 127.25Q457.66 176.92 457.66 270.98Q457.66 365.68 425.4 413.53Q393.14 461.38 325.8 461.38Z" /><path id="glyph-23" d="M66.6 58.86Q66.6 98.54 86.88 114.63Q107.17 130.72 135.34 130.72Q164.09 130.72 184.54 114.63Q205 98.54 205 58.86Q205 20.48 184.54 3.42Q164.09 -13.64 135.34 -13.64Q107.17 -13.64 86.88 3.42Q66.6 20.48 66.6 58.86Z" /></defs>
</svg>
